<svg width="12" height="12" viewBox="0 0 12 12" fill="none" xmlns="http://www.w3.org/2000/svg">
<path d="M10.9998 7.5V4.5C10.9998 2 9.99976 1 7.49976 1H4.49976C1.99976 1 0.999756 2 0.999756 4.5V7.5C0.999756 10 1.99976 11 4.49976 11H7.49976C9.99976 11 10.9998 10 10.9998 7.5Z" stroke="#191921" stroke-linecap="round" stroke-linejoin="round"/>
<path d="M1.25977 3.55499H10.7398" stroke="#191921" stroke-linecap="round" stroke-linejoin="round"/>
<path d="M4.25977 1.05499V3.48499" stroke="#191921" stroke-linecap="round" stroke-linejoin="round"/>
<path d="M7.74023 1.05499V3.25999" stroke="#191921" stroke-linecap="round" stroke-linejoin="round"/>
<path d="M4.875 7.225V6.625C4.875 5.855 5.42 5.54 6.085 5.925L6.605 6.225L7.125 6.525C7.79 6.91 7.79 7.54 7.125 7.925L6.605 8.225L6.085 8.525C5.42 8.91 4.875 8.595 4.875 7.825V7.225V7.225Z" stroke="#191921" stroke-miterlimit="10" stroke-linecap="round" stroke-linejoin="round"/>
</svg>
