<svg width="24" height="24" viewBox="0 0 24 24" fill="none" xmlns="http://www.w3.org/2000/svg">
<path fill-rule="evenodd" clip-rule="evenodd" d="M13.842 3.63225L19.842 8.29925C20.573 8.86725 21 9.74125 21 10.6673V18.0002C21 19.6572 19.657 21.0002 18 21.0002H6C4.343 21.0002 3 19.6572 3 18.0002V10.6673C3 9.74125 3.427 8.86725 4.158 8.29925L10.158 3.63225C11.242 2.78925 12.759 2.78925 13.842 3.63225ZM9 16.5005C8.72386 16.5005 8.5 16.7243 8.5 17.0005C8.5 17.2766 8.72386 17.5005 9 17.5005H15C15.2761 17.5005 15.5 17.2766 15.5 17.0005C15.5 16.7243 15.2761 16.5005 15 16.5005H9Z" fill="#F57D00"/>
</svg>
