<svg width="24" height="24" viewBox="0 0 24 24" fill="none" xmlns="http://www.w3.org/2000/svg">
<path d="M8.02002 2.02814C4.55487 2.23698 2.75627 3.62137 2.19568 6.60986H8.02002V2.02814Z" fill="#F57D00"/>
<path fill-rule="evenodd" clip-rule="evenodd" d="M2.05908 7.60986C2.01937 8.04482 2 8.50788 2 9V15C2 20 4 22 9 22H15C20 22 22 20 22 15V9C22 8.50788 21.9806 8.04482 21.9409 7.60986H2.05908ZM12.17 10.8501C10.84 10.0801 9.75 10.7101 9.75 12.2501V14.6501C9.75 16.1901 10.84 16.8201 12.17 16.0501L14.25 14.8501C15.58 14.0801 15.58 12.8201 14.25 12.0501L12.17 10.8501Z" fill="#F57D00"/>
<path d="M21.8043 6.60986C21.2437 3.62137 19.4451 2.23698 15.98 2.02814V6.60986H21.8043Z" fill="#F57D00"/>
<path d="M14.98 2H9.02002V6.60986H14.98V2Z" fill="#F57D00"/>
</svg>
