<svg width="16" height="16" viewBox="0 0 16 16" fill="none" xmlns="http://www.w3.org/2000/svg">
<path d="M2.66663 12.6666V11.6666H4.06663V6.56665C4.06663 5.63331 4.34163 4.80276 4.89163 4.07498C5.44163 3.3472 6.16663 2.88887 7.06663 2.69998V2.21665C7.06663 1.96109 7.15829 1.74998 7.34163 1.58331C7.52496 1.41665 7.7444 1.33331 7.99996 1.33331C8.25552 1.33331 8.47496 1.41665 8.65829 1.58331C8.84163 1.74998 8.93329 1.96109 8.93329 2.21665V2.69998C9.83329 2.88887 10.5611 3.3472 11.1166 4.07498C11.6722 4.80276 11.95 5.63331 11.95 6.56665V11.6666H13.3333V12.6666H2.66663ZM7.99996 14.6666C7.6444 14.6666 7.33329 14.5361 7.06663 14.275C6.79996 14.0139 6.66663 13.7 6.66663 13.3333H9.33329C9.33329 13.7 9.20274 14.0139 8.94163 14.275C8.68052 14.5361 8.36663 14.6666 7.99996 14.6666ZM5.06663 11.6666H10.95V6.56665C10.95 5.74442 10.6666 5.04442 10.1 4.46665C9.53329 3.88887 8.83885 3.59998 8.01663 3.59998C7.1944 3.59998 6.49718 3.88887 5.92496 4.46665C5.35274 5.04442 5.06663 5.74442 5.06663 6.56665V11.6666Z" fill="white"/>
</svg>
